<?xml version="1.0" encoding="utf-8"?>
<!-- Generator: Adobe Illustrator 19.1.0, SVG Export Plug-In . SVG Version: 6.00 Build 0)  -->
<svg version="1.1" id="Layer_1" xmlns="http://www.w3.org/2000/svg" xmlns:xlink="http://www.w3.org/1999/xlink" x="0px" y="0px"
	 viewBox="84 4803.5 767 474.3" style="enable-background:new 84 4803.5 767 474.3;" xml:space="preserve">
<style type="text/css">
	.st0{fill:#EEEEEE;stroke:#FFFFFF;}
	.st1{fill:#6F8D5C;stroke:#FFFFFF;}
	.st2{opacity:0.5;fill:#6F8D5C;stroke:#FFFFFF;}
	.st3{opacity:0.5;}
</style>
<g id="fl_8_">
	<path id="FL_8_" class="st0" d="M706,5167.4l1.9,6.1l3.1,8.1l4.4,7.8l3.1,5.2l4,4.6l3.4,3.1l1.3,2.4l-0.9,1.1l-0.7,1.1l2.4,6.2
		l2.4,2.4l2.1,4.4l3,4.8l3.8,6.8l1.1,6.3l0.4,9.9l0.5,1.5l-0.3,2.8l-2,1.1l0.3,1.6l-0.5,1.6l0.3,2l0.4,1.6l-2.3,2.7l-2.5,1.2
		l-3.2,0.1l-1.2,1.3l-2,0.8l-1.1-0.4l-0.9-0.8l-0.3-2.4l-0.7-2.8l-2.8-4.3l-3-1.9l-3.2-0.3l-0.7,1.1l-2.5-3.6l-0.5-3l-2.1-3.4
		l-1.5-0.9l-1.3,1.7l-1.5-0.3l-1.7-4.2l-2.4-3.2l-2.4-4.4l-2.1-2.5l-3-3.1l1.7-2l2.7-4.6l-0.1-1.3l-3.8-0.8l-1.3,0.5l0.3,0.5
		l2.1,0.8l-1.2,3.8l-0.7,0.4l-1.5-3.4l-1.1-4l-0.3-2.3l1.2-3.9v-7.9l-2.5-3.1l-1.1-2.5l-4.3-1.1l-1.6-0.5l-1.3-2.1l-2.8-1.3
		l-0.9-2.8l-2.3-0.8l-2-3.1l-3.5-1.2l-2.4-1.2h-2.1l-3.4,0.7l-0.1,1.6l0.7,0.8l-0.4,0.9l-2.5-0.1l-3.1,3l-3,1.6h-3.2l-2.7,1.1
		l-0.3-2.3l-1.3-1.6l-2.4-0.9l-1.3-1.2l-6.7-3.2l-6.3-1.5l-3.6,0.5l-5,0.4l-5,1.7l-2.9,0.5l-0.2-6.7l-2.1-1.6l-1.5-1.5l0.3-2.5
		l8.5-1.1l21.2-2.4l5.6-0.5l4.5,0.2l2.1,3.2l1.2,1.2l6.7,0.4l9-0.5l17.9-1.1l4.5-0.6l4.2,0.2l0.4,2.4l1.9,0.7l0.2-3.8l-1.3-3.5
		l1.1-1.2l4.6,0.4L706,5167.4L706,5167.4z M716.4,5277.3l2-0.5l1.1-0.2l1.2-1.9l1.9-1.3l1.1,0.4l1.4,0.3l0.3,0.9l-2.9,1l-3.5,1.2
		l-1.9,1L716.4,5277.3L716.4,5277.3z M727.6,5273.1l1,0.9l2.3-1.7l4.4-3.5l3.1-3.2l2.1-5.5l0.8-1.4l0.1-2.8l-0.6,0.4l-0.8,2.3
		l-1.2,3.8l-2.7,4.4l-3.6,3.5l-2.8,1.6L727.6,5273.1L727.6,5273.1z"/>
</g>
<g id="nh_8_">
	<path id="NH_8_" class="st0" d="M806.4,4921.1l0.7-0.9l0.9-2.7l-2.1-0.8l-0.4-2.5l-3.2-0.9l-0.3-2.3l-6-19.5l-3.8-12.1l-0.7,0
		l-0.5,1.3l-0.5-0.4l-0.8-0.8l-1.2,1.6l0,4.2l0.3,4.7l1.6,2.3v3.4l-3.1,4.2l-2.1,0.9v0.9l0.9,1.5v7.1l-0.7,7.6l-0.1,4l0.8,1.1
		l-0.1,3.8l-0.4,1.5l0.8,0.6l13.9-3.7l1.8-0.5l1.5-2.3L806.4,4921.1L806.4,4921.1z"/>
</g>
<g id="MI_8_" class="st3">
	<path id="MI-_8_" class="st1" d="M654.6,4950l-2.7-6.8l-1.9-7.5l-2-2.7l-2.1-1.5l-1.3,0.9l-3.2,1.5l-1.6,4.2l-2.3,3.1l-0.9,0.5
		l-1.2-0.5c0,0-2.1-1.2-2-1.7c0.1-0.5,0.4-4.2,0.4-4.2l2.8-1.1l0.7-2.8l0.5-2.1l2-1.3l-0.3-8.3l-1.3-1.9l-1.1-0.7l-0.7-1.7l0.7-0.7
		l1.3,0.3l0.1-1.3l-2-1.9l-1.1-2.1h-2.1l-3.8-1.2l-4.6-2.8h-2.3l-0.5,0.5l-0.8-0.4l-2.5-1.9l-2.4,1.5l-2.4,1.9l0.3,3l0.8,0.3
		l1.7,0.4l0.4,0.7l-2.1,0.7l-2.1,0.3l-1.2,1.5l-0.3,1.7l0.3,1.3l0.3,4.6l-3,1.7l-0.5-0.1v-3.5l1.1-2l0.5-2l-0.7-0.7l-1.6,0.7
		l-0.8,3.5l-2.3,0.9l-1.5,1.6l-0.1,0.8l0.5,0.7l-0.5,2.1l-1.9,0.4v0.9l0.7,2l-0.9,5.1l-1.3,3.4l0.5,3.9l0.4,0.9l-0.7,2l-0.3,0.7
		l-0.3,2.3l3,5l2.4,5.4l1.2,4l-0.7,3.9l-0.8,5l-2,4.3l-0.3,2.3l-2.7,2.6l3.7-0.1l17.8-1.9l6-0.8l0.1,1.4l5.7-1l8.5-1.2l3.2-0.4
		l0.1-0.5l0.1-1.2l1.7-3.1l1.7-1.4l-0.2-4.2l1.3-1.3l0.9-0.3l0.2-3l1.3-2.5l0.9,0.5l0.1,0.5l0.7,0.1l1.6-0.8L654.6,4950L654.6,4950z
		"/>
	<path id="SP-_8_" class="st1" d="M558.1,4871l1.5-1.7l1.8-0.7l4.5-3.2l1.9-0.5l0.4,0.4l-4.3,4.3l-2.8,1.6l-1.7,0.8L558.1,4871
		L558.1,4871z M629.6,4897.7l0.5,2.1l2.7,0.1l1.1-1c0,0-0.1-1.2-0.3-1.3s-1.3-1.5-1.3-1.5l-1.8,0.2l-1.3,0.1l-0.3,0.9L629.6,4897.7
		L629.6,4897.7z M546.4,4895.2l0.6-0.5l2.3-0.7l3-1.9v-0.8l0.5-0.5l5-0.8l2-1.6l3.6-1.7l0.1-1.1l1.6-2.4l1.5-0.7l1.1-1.5l1.9-1.9
		l3.6-2l3.9-0.4l0.9,0.9l-0.3,0.8l-3.1,0.8l-1.2,2.5l-1.9,0.7l-0.4,2l-2,2.7l-0.3,2.1l0.7,0.4l0.8-0.9l3-2.4l1.1,1.1h1.9l2.7,0.8
		l1.2,0.9l1.2,2.5l2.3,2.3l3.2-0.1l1.2-0.8l1.3,1.1l1.3,0.4l1.1-0.7h0.9l1.3-0.8l3.4-3l2.8-0.9l5.5-0.3l3.8-1.6l2.1-1.1l1.2,0.1v4.7
		l0.4,0.3l2.4,0.7l1.6-0.4l5.1-1.3l0.9-0.9l1.2,0.4v5.8l2.7,2.5l1.1,0.5l1.1,0.8l-1.1,0.3l-0.7-0.3l-3.1-0.4l-1.7,0.5l-1.9-0.1
		l-2.7,1.2h-1.5l-4.8-1.1l-4.3,0.1l-1.6,2.1l-5.8,0.5l-2,0.7l-0.9,2.5l-1.1,0.9l-0.4-0.1l-1.2-1.3l-3.8,2h-0.5l-0.9-1.3l-0.7,0.1
		l-1.6,3.6l-0.8,3.4l-2.6,5.8l-1-0.9l-1.1-0.9l-1.6-8.5l-2.9-1.1l-1.7-1.9l-10.1-2.3l-2.4-0.9l-6.8-1.8l-6.5-0.9L546.4,4895.2
		L546.4,4895.2z"/>
</g>
<g id="vt_8_">
	<path id="VT_8_" class="st0" d="M776.3,4930.8l0.3-4.4l-2.4-9l-0.5-0.3l-2.4-1.1l0.7-2.4l-0.7-1.7l-2.2-3.9l0.8-3.2l-0.7-4.3
		l-2-5.4l-0.7-4.1l21.9-5.6l0.3,4.6l1.6,2.3v3.4l-3.1,4.2l-2.1,0.9l0,0.9l1.1,1.3l-0.3,6.7l-0.5,7.7l-0.2,4.6l0.8,1.1l-0.1,3.8
		l-0.4,1.4l0.8,0.6l-6.2,1.3L776.3,4930.8L776.3,4930.8z"/>
</g>
<g id="me_8_">
	<path id="ME_8_" class="st0" d="M841.3,4868.3l1.6,1.7l1.9,3.1v1.6l-1.7,3.9l-1.6,0.5l-2.8,2.5l-4,4.6c0,0-0.5,0-1.1,0
		c-0.5,0-0.8-1.7-0.8-1.7l-1.5,0.1l-0.8,1.2l-2,1.2l-0.8,1.2l1.3,1.2l-0.4,0.5l-0.4,2.3l-1.6-0.1v-1.3l-0.3-1.1l-1.2,0.3l-1.5-2.7
		l-1.7,1.1l1.1,1.2l0.3,0.9l-0.7,1.1l0.3,2.5l0.1,1.3l-1.3,2.1l-2.4,0.4l-0.3,2.4l-4.4,2.5l-1.1,0.4l-1.3-1.2l-2.5,3l0.8,2.7
		l-1.2,1.1l-0.1,3.6l-0.9,5.2l-2-1l-0.4-2.5l-3.2-0.9l-0.3-2.3l-6-19.5l-3.9-12.2l1.2-0.1l1.3,0.3v-2.1l1.1-3.7l2.1-3.9l1.2-3.4
		l-1.6-2v-5l0.7-0.8l0.7-2.3l-0.1-1.2l-0.1-4l1.5-4l2.4-7.4l1.7-3.5h1.1l1.1,0.1v0.9l1.1,1.9l2.3,0.5l0.7-0.7v-0.8l3.4-2.4l1.5-1.5
		l1.2,0.1l5,2l1.6,0.8l7.5,24.8h5l0.7,1.6l0.1,4l2.4,1.9h0.7l0.1-0.4l-0.4-0.9L841.3,4868.3L841.3,4868.3z M823.9,4893.4l1.3-1.3
		l1.1,0.9l0.5,2l-1.4,0.7C825.4,4895.7,823.9,4893.4,823.9,4893.4z M829.5,4888.5l1.5,1.5c0,0,1.1,0.1,1.1-0.2
		c0-0.3,0.2-1.7,0.2-1.7l0.7-0.7l-0.7-1.5l-1.7,0.6L829.5,4888.5z"/>
</g>
<g id="ri_8_">
	<path id="RI_8_" class="st0" d="M800.8,4951.4l-3.1-12.4l5.2-1.5l1.8,1.6l2.7,3.6l2.2,3.7l-2.5,1.3l-1.1-0.1l-0.9,1.5l-2,1.6
		L800.8,4951.4L800.8,4951.4z"/>
</g>
<g id="ny_8_">
	<path id="NY_8_" class="st0" d="M764.6,4959.6l-0.9-0.8l-2.1-0.1l-1.9-1.6l-1.4-5.1l-2.9,0.1l-2-2.2l-16.1,3.6l-35.7,7.2l-6.2,1
		l-0.6-5.4l1.2-0.9l1.1-0.9l0.8-1.3l1.5-0.9l1.6-1.5l0.4-1.3l1.7-2.3l0.9-0.8l-0.1-0.8l-1.1-2.5l-1.5-0.1l-1.6-5.1l2.4-1.5l3.6-1.2
		l3.4-1.1l2.7-0.4l5.2-0.1l1.6,1.1l1.3,0.1l1.7-1.1l2.1-0.9l4.3-0.4l1.7-1.5l1.5-2.7l1.3-1.6h1.7l1.6-0.9l0.1-1.9l-1.2-1.7l-0.3-1.2
		l0.9-1.7v-1.2h-1.5l-1.5-0.7l-0.7-0.9l-0.1-2.1l4.8-4.6l0.5-0.7l1.2-2.4l2.4-3.8l2.3-3.1l1.7-2l2-1.5l2.6-1l4.6-1.1l2.7,0.1
		l3.8-1.2l6.3-1.7l0.4,4.1l2,5.4l0.7,4.3l-0.8,3.2l2.1,3.8l0.7,1.7l-0.7,2.4l2.4,1.1l0.5,0.3l2.5,9.1l-0.4,4.2l-0.4,9l0.7,4.6l0.7,3
		l1.2,6v6.7l-0.9,1.9l1.5,1.7l0.7,1.4l-1.6,1.5l0.3,1.1l1.1-0.3l1.2-1.1l1.9-2.1l0.9-0.5l1.3,0.5l1.9,0.1l6.6-3.2l2.4-2.3l1.1-1.2
		l3.5,1.3l-2.8,3l-3.2,2.4l-5.9,4.4l-2.1,0.8l-4.8,1.6l-3.4,0.9l-1-0.4l-0.2-3.1l0.4-2.3l-0.1-1.7l-2.3-1.4l-3.8-0.8l-3.2-0.9
		L764.6,4959.6L764.6,4959.6z"/>
</g>
<g id="pa_8_">
	<path id="PA_8_" class="st0" d="M760.2,4989.4l1.1-0.2l1.9-1l1-2.1l1.3-1.9l2.7-2.5v-0.7l-2-1.3l-3-2l-0.8-2.1l-2.3-0.3l-0.1-0.9
		l-0.7-2.3l1.9-0.9l0.1-2l-1.1-1.1l0.1-1.3l1.6-2.5v-2.5l2.2-2.2l-0.8-0.6l-2.1-0.2l-1.9-1.6l-1.3-5.1l-2.9,0.1l-2-2.2l-15,3.5
		l-35.7,7.2l-7.4,1.2l-0.5-5.4l-4.5,4.2l-1.1,0.4l-3.5,2.5l2.4,15.9l2.1,8.1l3,16l2.7-0.5l9.9-1.2l31.5-6.4l12.3-2.3l6.9-1.3
		l0.2-0.2l1.7-1.3L760.2,4989.4L760.2,4989.4z"/>
</g>
<path id="NJ_8_" class="st0" d="M764,4959.3l-1.9,2.3v2.5l-1.6,2.5l-0.1,1.3l1.1,1.1l-0.1,2l-1.9,0.9l0.7,2.3l0.1,0.9l2.3,0.3
	l0.8,2.1l3,2l2,1.3v0.7l-2.5,2.2l-1.3,1.9l-1.2,2.3l-1.9,1.1l-0.4,1.3l-0.2,1l-0.5,2.2l0.9,1.9l2.7,2.4l4,1.9l3.4,0.5l0.1,1.2
	l-0.7,0.8l0.3,2.3h0.7l1.7-2l0.7-4l2.3-3.4l2.5-5.4l0.9-4.6l-0.5-0.9l-0.1-7.8l-1.3-2.8l-0.9,0.7l-2.3,0.3l-0.4-0.4l0.9-0.8l1.7-1.6
	l0.1-0.9l-0.3-2.9l0.5-2.3l-0.1-1.6l-2.3-1.5l-4.2-1l-3.4-1.1L764,4959.3L764,4959.3z"/>
<path id="DE_8_" class="st1" d="M760.6,4992.4l0.3-1.8l0.3-1.4l-1.3,0.3l-1.3,0.4l-1.8,1.5l1.4,4.2l1.9,4.7l1.7,8.1l1.3,5.2l4.2-0.1
	l5.1-1l-1.9-6.1l-0.8,0.4l-3-2l-1.5-3.9l-1.6-3l-2.6-2.4l-0.7-1.7L760.6,4992.4L760.6,4992.4z"/>
<path id="MD_8_" class="st0" d="M772.4,5012.4l-5,1l-4.3,0.1l-1.5-5.7l-1.6-7.6l-2.1-5.1l-1.1-3.7l-6.2,1.3l-12.3,2.3l-31.1,6.3
	l0.9,4.2l0.8,4.7l0.3-0.3l1.7-2l1.9-2.2l2-0.5l1.2-1.2l1.5-2.1l1.1,0.5l2.4-0.3l2.1-1.7l1.7-1.2l1.5-0.4l1.4,0.9l2.4,1.2l1.6,1.5
	l1,1.3l3.4,1.4v2.4l4.6,1.1l0.9,0.5l1.2-1.7l2.4,1.6l-1.1,2.1l-0.6,3.3l-1.5,2.1v1.7l0.5,1.5l4.2,1.1l3.6-0.1l2.5,0.8l1.7,0.3
	l0.8-1.7l-1.2-1.7v-1.5l-2-1.7l-1.7-4.6l1.1-4.4l-0.1-1.7l-1.1-1.1c0,0,1.2-1.3,1.2-1.9c0-0.5,0.4-1.7,0.4-1.7l1.6-1.1l1.6-1.3
	l0.4,0.8l-1.2,1.3l-1.1,3.1l0.3,0.9l1.5,0.3l0.4,4.6l-1.7,0.8l0.3,3l0.4-0.1l0.9-1.6l1.3,1.5l-1.3,1.1l-0.3,2.8l2.1,2.8l3.2,0.4
	l1.3-0.7l2.7,3.5l1.1,0.4l5.5-2.3l1.7-3.3L772.4,5012.4L772.4,5012.4z M759.1,5019.9l0.9,2.1l0.1,1.5l0.9,1.5c0,0,0.7-0.7,0.7-1
	c0-0.3-0.6-2.5-0.6-2.5l-0.6-1.9L759.1,5019.9L759.1,5019.9z"/>
<path id="VA_8_" class="st2" d="M765.6,5023.8l-0.1-1.6l5.4-2.1l-0.6,2.7l-2.4,3.1l-0.3,3.8l0.4,2.8l-1.5,4.1l-1.8,1.6l-1.2-3.9
	l0.4-4.5l1.3-3.5L765.6,5023.8L765.6,5023.8z M768.4,5047.2l-48.3,10.4l-31.1,4.4l-5.5-0.3l-2.1,1.6l-6.1,0.2l-7,0.8l-9.1,1.3
	l8.7-4.7l0-1.7l1.3-1.8l8.8-9.5l3.3,3.7l3.1,0.8l2.1-0.9l1.9-1.1l2.1,1.1l3.2-1.2l1.6-3.8l2.2,0.4l2.4-1.8l1.5,0.4l2.3-3.1l0.3-1.7
	l-0.8-1.1l0.8-1.5l4.4-10.2l0.5-4.8l1-0.4l1.8,2l3.3-0.2l1.6-6.3l2.3-0.5l0.9-2.3l2.1-1.9l2.3-4.7l0.1-4.2l8.2,3.2
	c0.6,0.3,0.7-4.2,0.7-4.2l3,1.3l0.1,2.4l4.8,1.1l1.8,1l1.4,1.7l-0.5,3l-1.6,2.2l0.1,1.7l0.5,1.5l4.1,1.1l3.7,0l2.5,0.8l1.6,0.3
	l0.6,2.6l2.6,0.3l0.7,1l-0.4,3.9l1.1,0.9l-0.4,1.6l1,0.7l-0.2,1.1l-2.2-0.1l0.1,1.3l1.9,1.3l0.1,1.2l1.5,1.5l0.4,2.1l-2.1,1.1
	l1.3,1.2l4.8-1.4L768.4,5047.2L768.4,5047.2z"/>
<path id="WV_8_" class="st0" d="M707.1,5001.3l0.9,4.1l0.9,5l1.8-2.1l1.9-2.5l2.1-0.5l1.2-1.2l1.5-2.1l1.2,0.5l2.4-0.3l2.1-1.7
	l1.7-1.2l1.5-0.4l1.1,0.8l3,1.5l1.6,1.5l1.1,1.1l-0.6,4.6l-4.8-2.1l-3.5-1.3l-0.1,4.3l-2.3,4.6l-2.1,2l-1,2.3l-2.2,0.4l-0.7,3
	l-0.9,3.3l-3.3,0.3l-1.9-2l-0.9,0.5l-0.5,4.5l-1.1,2.9l-4.1,9.1l0.7,1l-0.2,1.6l-2.3,3.2l-1.5-0.5l-2.5,1.8l-2.1-0.5l-1.7,3.8
	c0,0-2.7,1.2-3.3,1.1c-0.1,0-2-1-2-1l-1.9,1.1l-2,0.9l-3.1-0.7l-0.9-1l-1.8-2.5l-2.6-1.7l-1.4-3l-3.6-2.9l-0.5-1.9l-2.1-1.2
	l-0.7-1.3l-0.2-4.4l1.8-0.1l1.6-0.7l0.1-2.3l1.3-1.2l0.1-4.2l0.8-3.2l1.1-0.5l1.1,0.9l0.4,1.5l1.5-0.8l0.4-1.3l-0.9-1.5v-2l0.8-1.1
	l1.9-2.8l1.1-1.2l1.7,0.4l1.9-1.3l2.5-2.8l1.9-3.2l0.3-4.7l0.4-4.2v-3.9l-0.9-2.5l0.8-1.2l1.1-1.1l2.9,16.5l3.8-0.6L707.1,5001.3
	L707.1,5001.3z"/>
<path id="OH_8_" class="st2" d="M685.7,4963.4l-5.1,3.4l-3.2,1.9l-2.8,3.1l-3.4,3.2l-2.7,0.7l-2.4,0.4l-4.6,2.1l-1.7,0.1l-2.8-2.5
	l-4.3,0.5l-2.1-1.2l-2-1.1l-4.1,0.6l-8.5,1.3l-9.3,1.8l1.1,12.1l1.5,11.4l2.1,19.5l0.5,4l3.4-0.1l2-0.7l2.8,1.2l1.7,3.6l4.3,0
	l1.6,1.8l1.5-0.1l2.1-1.1l2.1,0.3l4.5,0.4l1.4-1.8l1.9-1.1l1.7-0.6l0.5,2.3l1.5,0.8l2.9,1.9l1.8-0.1l1.1-0.4l0.2-2.3l1.3-1.2l0.1-4
	l0.8-3.4l1.1-0.5l1.1,1l0.4,1.4l1.4-0.9l0.4-1.2l-0.9-1.6l0.1-1.9l0.6-0.9l1.8-2.7l0.9-1.3l1.7,0.4l1.9-1.3l2.5-2.8l2.3-3.4l0.3-4.2
	l0.4-4.2l-0.1-4.4l-0.8-2.4l0.3-1l1.5-1.5l-1.9-7.5L685.7,4963.4L685.7,4963.4z"/>
<path id="IN_8_" class="st1" d="M589.6,5051.9l0.1-2.4l0.4-3.8l1.9-2.4l1.5-3.2l2.1-3.5l-0.4-4.8l-1.5-2.3l-0.3-2.7l0.7-4.6
	l-0.4-5.8l-1.1-13.3l-1.1-12.7l-0.8-9.7l2.5,0.7l1.2,0.8l0.9-0.3l1.7-1.6l2.3-1.3l4.2-0.1l18.2-1.9l4.6-0.4l1.2,13.2l3.5,30.6
	l0.5,4.8l-0.3,1.9l1,1.5l0.1,1.1l-2.1,1.3l-2.9,1.3l-2.7,0.5l-0.5,4l-3.8,2.7l-2.3,3.3l0.3,2l-0.5,1.3h-2.8l-1.3-1.3l-2.1,1
	l-2.2,1.2l0.1,2.5l-1,0.2l-0.4-0.8l-1.8-1.2l-2.7,1.1l-1.3,2.5l-1.2-0.7l-1.2-1.3l-3.7,0.4l-4.6,0.8L589.6,5051.9L589.6,5051.9z"/>
<path id="IL_8_" class="st2" d="M589.6,5052.2l0-2.7l0.5-3.9l1.9-2.4l1.5-3.4l1.9-3.3l-0.3-4.4l-1.7-2.9l-0.1-2.8l0.6-4.4l-0.7-6
	l-0.9-13.1l-1.1-12.5l-0.8-9.7l-0.2-0.8l-0.7-2.1l-1.1-3.1l-1.3-1.5l-1.2-2.1l-0.2-4.6l-38,2.2l0.2,2l1.9,0.6l0.8,0.9l0.4,1.5
	l3.2,2.8l0.6,1.9l-0.6,2.8l-1.5,3l-0.6,2.1l-1.9,1.5l-1.5,0.6l-4.4,1.1l-0.6,1.5l-0.6,1.7l0.6,1.1l1.5,1.3l-0.2,3.4l-1.5,1.3
	l-0.6,1.3v2.3l-1.5,0.4l-1.3,0.9l-0.2,1.1l0.2,1.7l-1.4,1.1l-0.9,2.3l0.4,3l1.9,6.1l6.1,6.3l4.6,3l-0.2,3.6l0.8,1.1l5.3,0.4l2.3,1.1
	l-0.6,3l-1.9,4.9l-0.6,2.7l1.9,3.2l5.3,4.4l3.8,0.6l1.7,4.2l1.7,2.7l-0.8,2.5l1.3,3.4l1.5,1.7l1.2-0.7l0.8-1.7l1.8-1.5l1.8-0.5
	l2.2,1l3,1.1l1-0.2l0.2-1.9l-1.1-2l0.3-2l1.5-1.1l2.5-0.7l1-0.4l-0.5-1.2l-0.7-2l1.2-0.8L589.6,5052.2L589.6,5052.2z"/>
<path id="CT_8_" class="st0" d="M800.8,4951.4l-3.1-12.4l-3.9,0.8l-17.6,3.9l0.8,2.7l1.2,6l0.1,7.4l-1,1.8l1.6,1.6l3.5-3.2l3-2.7
	l1.6-1.7l0.7,0.5l2.3-1.2l4.3-0.9L800.8,4951.4L800.8,4951.4z"/>
<path id="WI_8_" class="st0" d="M585.8,4966.7l-0.1-2.6l-1-3.8l-0.5-5.1l-0.9-2l0.8-2.5l0.7-2.4l1.2-2.1l-0.5-2.8l-0.5-3l0.4-1.5
	l1.6-2l0.1-2.3l-0.7-1.1l0.5-2.1l-0.4-3.5l2.3-4.7l2.4-5.6l0.1-1.9l-0.3-0.8l-0.7,0.4l-3.5,5.2l-2.3,3.4l-1.6,1.5l-0.7,1.9l-1.6,0.7
	l-0.9,1.6l-1.2-0.3l-0.1-1.5l1.1-2l1.7-3.9l1.5-1.3l0.8-2l-2.1-1.6l-1.6-8.6l-2.9-1.1l-1.6-1.9l-10.1-2.3l-2.4-0.8l-6.8-1.8l-6.6-1
	l-3.1-4.3l-0.6,0.5l-1-0.1l-0.5-0.9l-1.1,0.2l-0.9,0.1l-1.5,0.8l-0.8-0.5l0.5-1.6l1.6-2.5l0.9-0.9l-1.6-1.2l-1.7,0.7l-2.4,1.6
	l-6.2,2.7l-2.4,0.5l-2.4-0.4l-0.8-0.7l-1.8,2.4l-0.2,2.3v7l-0.9,1.3l-4.4,3.2l-1.9,4.9l0.4,0.2l2.1,1.7l0.6,2.7l-1.5,2.7v3.2
	l0.4,5.5l2.5,2.5h2.8l1.5,2.7l2.8,0.4l3.2,4.7l5.9,3.4l1.7,2.3l0.8,6.2l0.6,2.8l1.9,1.3l0.2,1.1l-1.7,2.8l0.2,2.7l2.1,3.2l2.1,0.9
	l2.5,0.4l1.1,1.1L585.8,4966.7L585.8,4966.7z"/>
<path id="NC_8_" class="st2" d="M768.4,5047.2l1.7,4.1l3,5.4l2,2l0.5,1.9l-2,0.1l0.7,0.5l-0.3,3.5l-2.1,1.1l-0.5,1.7l-1.1,2.4
	l-3.1,1.3l-2-0.3l-1.2-0.1l-1.3-1.1l0.3,1.1v0.8h1.6l0.7,1.1l-1.6,5.2h3.5l0.5,1.3l1.9-1.9l1.1-0.4l-1.6,3l-2.5,4h-1.1l-0.9-0.4
	l-2.3,0.5l-4.3,2l-5.4,4.4l-2.8,3.9l-1.6,5.4l-0.4,2l-3.9,0.4l-4.5,1.1l-8.3-6.8l-10.5-6.3l-2.4-0.7l-10.5,1.2l-3.5,0.6l-1.3-2.7
	l-2.5-1.8l-13.7,0.4l-6,0.7l-7.5,3.8l-5.1,2.1l-17.6,2.1l0.4-3.4l1.5-1.2l2.3-0.5l0.5-3.1l3.5-2.3l3.2-1.2l3.5-3l3.6-1.7l0.5-2.5
	l3.2-3.2l0.5-0.1c0,0,0,0.9,0.7,0.9c0.7,0,1.6,0.3,1.6,0.3l1.9-3l1.7-0.5l1.9,0.3l1.3-3l2.4-2.1l0.4-1.7l0.2-3l3.5,0l6-0.7l13.1-1.9
	l12.6-1.7l18-3.9l16.6-3.5l9.3-2L768.4,5047.2L768.4,5047.2z M771.9,5074.8l2.1-2.1l2.6-2.1l1.3-0.5l0.1-1.7l-0.5-5.1l-1.2-1.9
	l-0.5-1.5l0.6-0.2l2.3,4.6l0.3,3.7l-0.1,2.8l-2.8,1.3l-2.3,2l-0.9,1L771.9,5074.8L771.9,5074.8z"/>
<g id="dc_16_">
	<path id="DC_8_" class="st0" d="M744.2,5011.1l-1.5-1.5l-1-0.6l1.2-1.7l2.4,1.6L744.2,5011.1L744.2,5011.1z"/>
</g>
<path id="MA_8_" class="st0" d="M822,4946.7l1.8-0.6l0.4-1.4l0.9,0.1l0.9,1.9l-1,0.4l-3.2,0.1L822,4946.7L822,4946.7z M814.3,4947.4
	l1.9-2.2h1.3l1.5,1.2l-2,0.9l-1.8,0.9L814.3,4947.4L814.3,4947.4z M785.4,4929.1l14.6-3.9l1.9-0.5l1.6-2.3l3.1-1.4l2.4,3.7l-2,4.3
	l-0.3,1.2l1.6,2.1l0.9-0.7h1.5l1.9,2.1l3.2,5l3,0.4l1.9-0.8l1.5-1.5l-0.7-2.3l-1.7-1.3l-1.2,0.7l-0.8-1.1l0.4-0.4l1.7-0.1l1.5,0.7
	l1.6,2l0.8,2.4l0.3,2l-3.5,1.2l-3.2,1.6l-3.2,3.8l-1.6,1.2v-0.8l2-1.2l0.4-1.5l-0.7-2.5l-2.4,1.2l-0.7,1.2l0.4,1.9l-1.7,0.8
	l-2.3-3.8l-2.8-3.6l-1.7-1.5l-5.4,1.6l-4.2,0.9l-17.2,3.8l-0.6-4l0.5-8.8l3.6-0.7L785.4,4929.1L785.4,4929.1z"/>
<path id="TN_8_" class="st2" d="M653.6,5067.1l-43.1,4.2l-13.1,1.5l-3.8,0.4l-3.2,0l-0.2,3.4l-6.8,0.2l-5.8,0.5l-6.7-0.1l-1.2,5.9
	l-1.4,4.5l-2.7,2.3l-1.1,3.6l-0.3,2.1l-3.4,1.9l1.2,3l-0.8,3.6l-0.8,0.7l89.8-8.6l0.3-3.3l1.5-1.2l2.4-0.6l0.6-3.1l3.4-2.2l3.4-1.2
	l3.4-3l3.7-1.7l0.4-2.5l3.4-3.3l0.5-0.1c0,0,0,0.9,0.7,0.9c0.7,0,1.6,0.3,1.6,0.3l1.9-3l1.7-0.5l1.9,0.2l1.3-2.9l2.5-2.2l0.3-1.6
	l0.3-3.1l-1.8-0.2l-2.2,1.7l-5.8,0l-15.2,2L653.6,5067.1L653.6,5067.1z"/>
<path id="AR_8_" class="st2" d="M568.2,5087.6l-3.3,0.6l-4.2-0.5l0.3-1.3l2.5-2.1l0.8-3l-1.5-2.5l-65.1,2.1l1.3,5.7v6.8l1.1,9.1
	l0.2,31.4l1.9,1.6l2.5-1.1l2.3,0.9l0.6,5.5l46.2-0.9l1-1.7l-0.2-2.9l-1.5-2.5l1.3-1.2l-1.3-2.1l0.6-2.1l1.1-4.7l2.1-1.7l-0.6-1.9
	l3-4.5l2.3-1.1l-0.1-1.2l-0.3-1.5l2.4-4.6l2-1l0.3-2.8l1.5-1l-2.6-0.4l-1.1-3.3l2.3-2l0.5-1.7l1.1-3.4L568.2,5087.6L568.2,5087.6z"
	/>
<path id="MO_8_" class="st2" d="M538.8,5008.8l-2.1-2.6l-0.9-1.9l-53.4,2l-1.9,0.1l1,2.1l-0.2,1.9l2.1,3.2l2.6,3.4l2.6,2.3l1.8,0.2
	l1.2,0.8v2.5l-1.5,1.3l-0.4,1.9l1.7,2.8l2.1,2.5l2.1,1.5l1.1,9.7l0.3,29.9l0.2,3.9l0.4,4.5l18.6-0.7l19.3-0.6l17.3-0.7l9.7-0.2
	l1.8,2.8l-0.6,2.7l-2.6,2l-0.5,1.5l4.5,0.4l3.2-0.6l1.4-4.6l0.5-4.9l1.7-2.1l2.2-1.2l0-2.5l0.8-1.6l-1.4-2.1l-1.1,0.8l-1.7-1.8
	l-1.1-4l0.7-2.1l-1.6-2.8l-1.5-3.8l-4-0.7l-5.8-4.6l-1.4-3.4l0.7-2.7l1.7-5l0.4-2.4l-1.6-0.9l-5.7-0.7l-0.9-1.4l-0.1-3.5l-4.6-2.8
	l-5.8-6.5l-1.9-6.1l-0.2-3.5L538.8,5008.8L538.8,5008.8z"/>
<path id="GA_8_" class="st2" d="M633.3,5098v1.8l0.1,1.7l0.5,2.8l2.8,6.6l2,8.2l1.2,5.1l1.3,4l1.2,5.8l1.7,5.2l2.1,2.8l0.4,2.8
	l1.6,0.7l0.1,1.7l-1.5,4l-0.4,2.7l-0.1,1.6l1.3,3.6l0.3,4.4l-0.7,2l0.5,0.7l1.2,0.7l0.2,2.7l1.9,2.8l1.9,1.8l6.6,0.1l9-0.5l17.9-1.1
	l4.5-0.6l3.8,0l0.1,2.4l2.1,0.7l0.3-3.6l-1.3-3.8l0.9-1.3l4.8,0.7l4.1,0.3l-0.6-5.2l1.9-8.3l1.2-3.5l-0.4-2.1l2.8-5.2l-0.4-1.1
	l-1.6,0.6l-2.1-1.1l-0.5-1.7l-1.1-3l-1.9-1.7l-2.1-0.5l-1.3-4l-2.4-5.3l-3.5-1.6l-1.7-1.6l-1.1-2.1l-1.7-1.6l-1.9-1.1l-1.9-2.4
	l-2.5-1.9l-3.8-1.5l-0.4-1.2l-2-2.4l-0.4-1.2l-2.8-4.1l-2.9,0.1l-3.1-2l-1.2-1.1l-0.3-1.5l0.7-1.6l1.8-0.9l-0.5-1.7L633.3,5098
	L633.3,5098z"/>
<path id="SC_8_" class="st2" d="M710.2,5141.7l-1.5,0.8l-2.1-1.1l-0.5-1.7l-1.1-3l-1.9-1.7l-2.1-0.5l-1.3-4l-2.3-5l-3.5-1.6
	l-1.7-1.6l-1.1-2.1l-1.7-1.6l-1.9-1.1l-1.9-2.4l-2.5-1.9l-3.8-1.5l-0.4-1.2l-2-2.4l-0.4-1.2l-2.8-4.3l-2.8,0.1l-3.4-2l-1.1-1.1
	l-0.3-1.5l0.7-1.6l1.9-0.8l-0.4-1.9l4.8-1.9l7.6-3.8l6.5-0.7l13.4-0.4l2.2,1.6l1.4,2.8l3.6-0.5l10.5-1.2l2.4,0.7l10.5,6.3l8.4,6.7
	l-4.5,4.5l-2.1,5.1l-0.4,5.2l-1.3,0.7l-0.9,2.3l-2,0.5l-1.7,3l-2.3,2.3l-1.9,2.8l-1.3,0.7l-3,2.8l-2.4,0.1l0.8,2.7l-4.2,4.6
	L710.2,5141.7L710.2,5141.7z"/>
<path id="KY_8_" class="st2" d="M677.9,5048l-1.9,2l-3,3.3l-4.1,4.5l-1,1.4l-0.1,1.7l-3.6,1.8l-4.7,2.8l-6,1.5l-43.1,4.1l-13.1,1.5
	l-3.8,0.4l-3.2,0l-0.2,3.5l-6.8,0.1l-5.8,0.5l-6.6-0.1l1-1.1l2.1-1.3l0.2-2.7l0.8-1.5l-1.3-2.1l0.7-1.6l1.9-1.5l1.7-0.5l2.3,1.1
	l3,1.1l0.9-0.3l0.1-1.9l-1.1-2l0.3-1.9l1.6-1.2l2.1-0.5l1.3-0.5l-0.7-1.5l-0.5-1.6l1.3-0.8c0,0,1-2.9,1-3l2.5-1.2l4.4-0.8l3.7-0.4
	l1.2,1.4l1.3,0.7l1.3-2.6l2.6-1.1l1.8,1.2l0.3,0.8l1-0.2l-0.1-2.5l2.6-1.5l1.8-0.9l1.3,1.4l2.8,0l0.5-1.3l-0.3-1.9l2.2-3.3l4-2.9
	l0.6-4l2.4-0.4l3.1-1.4l2-1.4l-0.2-1.3l-0.9-1.2l0.5-2.5l3.5-0.1l1.9-0.6l2.8,1.2l1.7,3.6l4.3,0l1.7,1.8l1.3-0.1l2.2-1.1l4.3,0.5
	l2.1,0.2l1.4-1.7l2.2-1.2l1.6-0.6l0.5,2.4l1.7,0.9l2.2,1.7l0.1,4.7l0.7,1.3l2.1,1.3l0.6,1.9l3.5,2.9l1.5,3L677.9,5048L677.9,5048z"
	/>
<path id="AL_8_" class="st2" d="M599.3,5185.1l-1.2-11.9l-2.3-15.6l0.1-11.7l0.7-25.8l-0.1-13.8l0.1-5.3l36.9-3l-0.1,1.8l0.1,1.7
	l0.5,2.8l2.8,6.6l2,8.2l1.2,5.1l1.3,4l1.2,5.8l1.7,5.2l2.1,2.8l0.4,2.8l1.6,0.7l0.1,1.7l-1.5,4l-0.4,2.7l-0.1,1.6l1.3,3.6l0.3,4.4
	l-0.7,2l0.5,0.7l1.2,0.7l0.3,2.4l-4.6-0.3l-5.6,0.5l-21.2,2.4l-8.6,1.2l-0.2,2.4l1.5,1.5l2.1,1.6l0.5,6.6l-4.6,2.1l-2.3-0.3l2.3-1.6
	v-0.8l-2.5-5l-1.9-0.5l-1.2,3.6l-1.1,2.3l-0.5-0.1L599.3,5185.1L599.3,5185.1z"/>
<path id="LA_8_" class="st2" d="M579.9,5184l-2.7-2.6l0.8-4.6l-0.5-0.7l-7.7,0.8l-20.8,0.4l-0.6-2l0.8-7l2.8-4.9l4.2-7.2l-0.5-2
	l1-0.6l0.4-1.6l-1.9-1.7l-0.1-1.6l-1.5-3.6l-0.1-5.3l-46,0.8l0,7.9l0.6,7.8l0.6,3.2l2.1,3.4l0.8,4.2l3.6,4.6l0.2,2.7l0.6,0.6l-0.6,7
	l-2.5,4.2l1.3,1.7l-0.6,2.1l-0.6,6.1l-1.1,2.7l0.1,3l3.9-1.3l10.1,0.2l8.6,3l5.4,0.9l3.1-1.2l2.7,0.9l2.7,0.8l0.7-1.7l-2.7-0.9
	l-2.1,0.4l-2.3-1.3c0,0,0.1-1.1,0.7-1.2c0.5-0.1,2.5-0.8,2.5-0.8l1.5,1.2l1.5-0.8l2.7,0.5l1.2,2l0.3,1.9l3.8,0.3l1.5,1.5l-0.7,1.3
	l-1.1,0.7l1.3,1.3l7,3l3-1.1l0.8-2l2.1-0.5l1.5-1.2l1.1,0.8l0.7,2.4l-1.9,0.7l0.5,0.5l2.8-1.1l1.9-2.8l0.7-0.4l-1.7-0.3l0.7-1.3
	l-0.1-1.2l1.7-0.4l0.9-1.1l0.5,0.7c0,0-0.1,2.5,0.5,2.5s3.5,0.5,3.5,0.5l3.4,1.6l0.8,1.2h2.4l0.9,0.8l1.9-2.5v-1.2h-1.1l-2.8-2.3
	l-4.8-0.7l-2.7-1.9l0.9-2.3l1.9,0.3l0.1-0.5l-1.5-0.8v-0.4h2.7l1.5-2.5l-1.1-1.6l-0.3-2.3l-1.2,0.1l-1.6,1.7l-0.5,2.1l-2.5-0.5
	l-0.8-1.5l1.5-1.6l1.6-2.9l-0.9-2L579.9,5184L579.9,5184z"/>
<path id="MS_8_" class="st2" d="M599.5,5184.2l-0.2,1H595l-1.2-0.7l-1.7-0.3l-5.6,1.6l-1.5-0.7l-2.1,3.5l-0.9,0.6l-0.9-2.1l-0.9-3.2
	l-2.8-2.7l0.9-4.6l-0.6-0.8l-1.5,0.2l-6.6,0.7l-20.4,0.3l-0.6-1.8l0.7-7l2.6-4.7l4.3-7.6l-0.4-2l1-0.5l0.4-1.6l-1.9-1.7l-0.1-1.8
	l-1.5-3.4l-0.1-4.9l1.1-2.1l-0.2-2.8l-1.5-2.6l1.3-1.2l-1.3-2.1l0.4-1.4l1.3-5.4l2.1-1.7l-0.5-2l3-4.4l2.4-1.1l-0.2-1.4l-0.2-1.4
	l2.4-4.6l1.9-1l0.1-0.7l31-3.2l0.2,5.2l0.1,13.8l-0.7,25.8l-0.1,11.7l2.3,15.6L599.5,5184.2L599.5,5184.2z"/>
<path id="IA_8_" class="st0" d="M547.8,4968.6l0.2,2.3l1.8,0.5l0.8,1l0.4,1.5l3.1,2.8l0.6,2l-0.6,2.8l-1.3,2.7l-0.7,2.3l-1.8,1.3
	l-1.4,0.5l-4.6,1.5l-1.2,3.2l0.6,1.1l1.5,1.4l-0.2,3.4l-1.5,1.3l-0.6,1.4l0.1,2.3l-1.6,0.4l-1.3,0.9l-0.2,1.1l0.2,1.8l-1.3,0.9
	l-2.1-2.6l-1-2l-54.6,2.1l-0.8,0.1l-1.7-3.7l-0.2-5.5l-1.3-3.4l-0.6-4.4l-1.9-3l-0.8-4l-2.3-6.3l-0.9-4.5l-1.1-1.8l-1.3-2.3l1.6-4
	l1.1-4.7l-2.3-1.7l-0.4-2.3l0.8-2.1h1.4l68.6-1.1l0.7,3.5l1.9,1.3l0.2,1.2l-1.7,2.8l0.2,2.7l2.1,3.2l2.1,1.1l2.6,0.4L547.8,4968.6
	L547.8,4968.6z"/>
<path id="MN_8_" class="st0" d="M469.8,4909.8l-0.4-7l-1.5-6.1l-1.5-11.2l-0.4-8.2l-1.5-2.8l-1.3-4.2v-8.5l0.6-3.2l-1.5-4.5l25,0
	l0.3-6.8l0.5-0.1l1.9,0.4l1.6,0.7l0.7,4.6l1.2,5.1l1.3,1.3h4l0.3,1.2l5.2,0.3v1.7h4l0.3-1.1l0.9-0.9l1.9-0.5l1.1,0.8h2.4l3.2,2.1
	l4.4,2l2,0.4l0.4-0.8l1.2-0.4l0.4,2.4l2.1,1.1l0.4-0.4l1.1,0.1v1.7l2.1,0.8h2.5l1.3-0.7l2.7-2.7l2.1-0.4l0.7,1.5l0.4,1.1h0.8
	l0.8-0.7l7.4-0.3l1.5,2.5h0.5l0.6-0.9l3.7-0.3l-0.5,1.9l-3.3,1.5l-7.7,3.4l-4,1.7l-2.5,2.1l-2,3l-1.9,3.2l-1.5,0.7l-3.8,4.2
	l-1.1,0.1l-3.6,2.3l-2,2.7l-0.2,2.6l0.1,6.7l-1.1,1.4l-4.2,3.1l-1.9,5l2.4,1.9l0.6,2.7l-1.5,2.7l0.1,3.1l0.3,5.6l2.5,2.5h2.8
	l1.6,2.6l2.8,0.4l3.2,4.7l5.9,3.4l1.8,2.4l0.6,5.3l-67.4,1l-0.3-29.6l-0.4-2.5l-3.4-2.8l-0.9-1.5v-1.3l1.7-1.3l1.1-1.1L469.8,4909.8
	L469.8,4909.8z"/>
<path id="OK_8_" class="st0" d="M391,5069.2l-13.8-1.1l-0.7,9.1l17,1l26.6,1.1l-1.9,20.3l-0.4,14.8l0.2,1.3l3.6,3l1.7,0.9l0.6-0.2
	l0.6-1.7l1.1,1.5h1.7v-1.1l2.3,1.1l-0.4,3.2l3.4,0.2l2.1,0.9l3.4,0.6l2.1,1.5l1.9-1.7l2.8,0.6l2.1,2.8h0.8v1.9l1.9,0.6l1.9-1.9
	l1.5,0.6h2.1l0.8,2.1l5.2,1.7l1.1-0.6l1.5-3.4h0.9l0.9,1.7l3.4,0.6l3,1.1l2.5,0.8l1.5-0.8l0.6-2.1h3.6l1.7,0.8l2.3-1.7h0.9l0.6,1.3
	h3.4l1.3-1.7l1.5,0.4l1.7,2.1l2.7,1.5l2.7,0.8l1.6,0.9l-0.3-30.9l-1.1-9.1l-0.1-7.4l-1.2-5.4l-0.6-6l-0.1-3.2l-10.1,0.3l-38.5-0.4
	l-37.4-1.7L391,5069.2L391,5069.2z"/>
<path id="TX_8_" class="st2" d="M375.3,5077.3l18.8,0.9l25.8,0.9l-1.9,19.5l-0.2,15.1l0.1,1.7l3.6,3.2l1.6,1.2l1-0.5l0.3-1.5
	l0.9,1.5l1.8,0l0-1.2l1.4,0.8l0.9,0.3l-0.3,3.3l3.4,0.1l2.4,1l3.3,0.4l2,1.7l1.8-1.7l3.1,0.5l1.8,2.7l0.9,0.3l-0.1,1.6l1.8,0.7
	l1.9-1.7l1.8,0.5l1.9,0l0.8,2l5.3,1.8l1.3-0.6l1.2-3.5h0.3l0.8,0.1l1,1.7l3.3,0.6l2.8,0.9l2.8,1l1.5-0.8l0.6-2.1l3.7,0l1.5,0.8
	l2.3-1.7l0.9,0l0.7,1.3h3.4l1.3-1.7l1.5,0.3l1.6,2l2.9,1.7l2.4,0.7l1.3,0.7l2,1.7l2.5-1.1l2.2,0.9l0.5,5.1l0,8.1l0.6,7.9l0.6,3
	l2.2,3.7l0.7,4.1l3.5,4.6l0.2,2.6l0.6,0.7l-0.6,7l-2.4,4.2l1.3,1.8l-0.5,1.9l-0.6,6.1l-1.2,2.8l0.2,2.9l-4.7,1.3l-8.2,3.8l-0.8,1.6
	l-2.1,1.6l-1.7,1.2l-1.1,0.7l-4.7,4.4l-2.3,1.7l-4.4,2.7l-4.7,2l-5.2,2.8l-1.5,1.2l-4.8,3l-2.8,0.5l-3.2,4.6l-3.4,0.3l-0.8,1.6
	l1.9,1.6l-1.2,4.6l-1.1,3.8l-0.9,3.2l-0.7,3.8l0.7,2l1.5,5.8l0.8,5.1l1.5,2.3l-0.8,1.2l-2.5,1.6l-4.7-3.2l-4.6-0.9l-1.1,0.4
	l-2.7-0.5l-3.5-2.5l-4.3-0.9l-6.3-2.8l-1.7-3.2l-1.1-5.4l-2.7-1.6l-0.5-1.9l0.5-0.5l0.3-2.8l-1.1-0.5l-0.5-0.8l1.1-3.6l-1.3-1.9
	l-2.7-1.1l-2.8-3.6l-3-5.5l-3.5-2.1l0.1-1.6l-4.4-10.2l-0.7-3.5l-1.5-1.6l-0.1-1.2l-5-4.4l-2.1-2.5v-0.9l-2.1-1.7l-5.6-0.9l-6.2-0.5
	l-2.5-1.9l-3.8,1.5l-3,1.2l-1.9,2.7l-0.8,3.1l-3.6,5.1l-2,2l-2.1-0.8l-1.5-0.9l-1.6-0.5l-3.2-1.9v-0.5l-1.5-1.6l-4.3-1.7l-6.2-6.4
	l-1.9-3.9v-6.7l-2.7-5.4l-0.4-2.3l-1.3-0.8l-0.9-1.7l-4.2-1.7l-1.1-1.3l-5.9-6.6l-1.1-2.7l-3.9-1.9l-1.2-3.6l-2.1-2.4l-1.6-0.4
	l-0.5-3.9l6.6,0.6l24.1,2.3l24.1,1.3l1.9-16.2l3.2-46.1l1.3-15.6l1.1,0 M458.5,5267.9l-0.5-5.9l-2.3-6l-0.5-5.8l1.3-6.8l2.8-5.7
	l2.9-4.5l2.6-3l0.5,0.2l-4,5.5l-3.6,5.4l-1.7,5.5l-0.3,4.3l0.7,5.1l2.1,6l0.4,4.3l0.1,1.2L458.5,5267.9L458.5,5267.9z"/>
<path id="NM_8_" class="st2" d="M314.5,5154.8l-0.6-3.9l7.2,0.4l25,2.4l22.6,1.4l1.8-15.5l3.2-46.4l1.4-16.1l1.3,0.1l0.7-9.3
	l-86.3-8.8l-14.5,100l12.8,1.7l1.1-8.3L314.5,5154.8L314.5,5154.8z"/>
<path id="KS_8_" class="st2" d="M496.9,5072.2l-10.5,0.2l-38.3-0.4l-37-1.7l-20.4-1l3.2-53.6l18.3,0.6l33.4,0.7l36.8,0.8h4.2
	l1.8,1.8l1.7,0l1.4,0.8l-0.1,2.5l-1.5,1.4l-0.3,1.9l1.5,2.8l2.5,2.7l1.9,1.3l1.1,9.3L496.9,5072.2L496.9,5072.2z"/>
<path id="NE_8_" class="st0" d="M478.8,5002.7l2.7,5.8l-0.1,1.9l2.9,4.6l2.3,2.6h-4.2l-36.1-0.8l-33.9-0.7l-18.5-0.7l0.9-17.7
	l-26.8-2.4l3.6-36.5l12.9,0.9l16.7,0.9l14.8,0.9l19.7,0.9l8.9-0.4l1.7,1.9l4,2.5l0.9,0.8l3.6-1.1l3.2-0.4l2.3-0.2l1.5,1.1l3.4,1.3
	l2.5,1.3l0.4,1.3l0.8,1.7h1.5l0.7,0l0.7,3.9l2.4,7l0.5,3.1l2.1,3.1l0.5,4.2l1.3,3.5L478.8,5002.7L478.8,5002.7z"/>
<path id="SD_8_" class="st0" d="M470.8,4972.3l0-0.5l-2.4-4l1.5-3.9l1.2-4.9l-2.3-1.7l-0.3-2.3l0.7-2.1l2.6,0l-0.1-4.2l-0.3-25
	l-0.5-3.1l-3.4-2.8l-0.8-1.4l-0.1-1.3l1.7-1.3l1.3-1.4l0.2-2.2l-48.4-1.3L376,4906l-4.4,52.9l12.1,0.8l16.6,1l14.7,0.8l19.7,1.1
	l9.9-0.4l1.6,1.9l4.3,2.7l0.6,0.6l3.8-1.2l5.4-0.5l1.4,1.1l3.5,1.3l2.4,1.4l0.3,1.2l0.9,1.9L470.8,4972.3L470.8,4972.3z"/>
<path id="ND_8_" class="st0" d="M469.8,4909.9l-0.5-7l-1.4-5.7l-1.6-10.8l-0.4-9.1l-1.4-2.6l-1.5-4.3l0-8.7l0.5-3.2l-1.5-4.5
	l-23.8-0.5l-15.4-0.5l-22-1.1l-19-1.8L376,4906l45.6,2.8L469.8,4909.9L469.8,4909.9z"/>
<path id="WY_8_" class="st0" d="M374.4,4921.8l-88.6-11.2l-11.7,73.4l94,11.3L374.4,4921.8z"/>
<path id="MT_8_" class="st0" d="M381.8,4850.2l-25.5-2.3l-24.3-3l-24.3-3.4l-26.8-4.4l-15.3-2.8l-27.2-5.8l-3.7,17.7l2.8,6.3
	l-1.1,3.8l1.5,3.8l2.7,1.1l3.8,8.9l2.2,2.6l0.4,0.9l2.8,0.9l0.4,1.7l-5.9,14.6v2.1l2.1,2.7h0.8l4-2.5l0.6-0.9l1.3,0.6l-0.2,4.4
	l2.3,10.4l2.5,2.1l0.8,0.6l1.5,1.9l-0.4,2.8l0.6,2.8l0.9,0.8l1.9-1.9h2.3l2.7,1.3l2.1-0.8h3.4l3,1.3l2.3-0.4l0.4-2.5l2.5-0.6
	l1.1,1.1l0.4,2.7l1.2,0.7l1.6-9.2l88.6,11.1L381.8,4850.2L381.8,4850.2z"/>
<path id="CO_8_" class="st0" d="M390.8,5069.3l4.1-71.7l-94.1-10.5l-10.1,73L390.8,5069.3z"/>
<path id="ID_8_" class="st0" d="M198.6,4949.4l7.3-29.2l1.1-3.5l2.1-4.9l-1-1.9l-2.1,0.1l-0.7-0.9l0.4-0.9l0.3-2.6l3.7-4.6l1.5-0.4
	l0.9-0.9l0.5-2.7l0.8-0.6l3.2-4.8l3.2-3.6l0.2-3.1l-2.8-2.2l-1.3-3.7l11.3-52.6l11.2,2.1l-3.7,17.7l3,6.2l-1.3,3.9l1.6,3.9l2.6,1
	l3.2,7.9l2.9,3.7l0.4,0.9l2.8,0.9l0.3,1.7l-5.8,14.4l-0.1,2.1l2.2,2.8l0.8,0l4.1-2.5l0.6-0.9l1.3,0.5l-0.2,4.4l2.3,10.4l3.3,2.6
	l1.4,1.8l-0.6,3.4l0.9,2.3l0.9,0.9l2.1-2l2.4,0l2.4,1.1l2.3-0.6l3.1-0.1l3.3,1.3l2.3-0.2l0.4-2.5l2.4-0.6l1,1.3l0.4,2.4l1.2,1
	l-7,44.5C277.4,4964.5,204.4,4950.6,198.6,4949.4L198.6,4949.4z"/>
<path id="UT_8_" class="st0" d="M290.7,5060.3l-69.5-9.9l17.1-93.4l38.8,7.3l-1.2,8.8L274,4984l6.5,0.8l13.6,1.5l6.8,0.7
	L290.7,5060.3z"/>
<path id="AZ_8_" class="st1" d="M195.6,5120.5l-2.2,1.8l-0.3,1.2l0.4,0.8l15.7,8.9l10.1,6.3l12.2,7.1l14,8.3l10.2,2l20.7,2.2
	l14.3-98.9l-69.5-9.9l-2.6,13.6l-1.3,0l-1.4,2.2l-2.1-0.1l-1-2.3l-2.3-0.3l-0.8-0.9H209l-0.8,0.5l-1.6,0.9l-0.1,5.8l-0.2,1.4
	l-0.5,10.4l-1.2,1.8l-0.5,2.8l2.3,4.1l1,4.8l0.7,0.9l0.9,0.5l-0.1,1.9l-1.3,1.1l-2.8,1.4l-1.6,1.6l-1.2,3l-0.5,4.1l-2.4,2.3
	l-1.7,0.6l0.1,0.7l-0.4,1.4l0.4,0.7l3,0.5l-0.5,2.3l-1.2,1.8L195.6,5120.5L195.6,5120.5z"/>
<path id="NV_8_" class="st0" d="M238.3,4956.9l-19.6,106.9l-1.5,0.3l-1.3,2l-2,0l-1.2-2.3l-2.2-0.3l-0.6-0.9l-0.9,0l-2.3,1.4
	l-0.3,5.6l-0.3,4.8l-0.3,7.1l-1.2,1.7l-2-0.9l-57.3-86.5l15.8-56.1L238.3,4956.9L238.3,4956.9z"/>
<path id="OR_8_" class="st0" d="M198.8,4948.6l7.3-28.9l0.9-3.5l2-4.7l-0.5-1l-2.1,0l-1.1-1.4l0.4-1.2l0.4-2.7l3.7-4.6l1.5-0.9
	l0.9-0.9l1.2-3l3.4-4.7l3-3.2l0.2-2.9l-2.7-2l-1.5-3.9l-10.5-3l-12.5-2.9l-12.8,0.1l-0.4-1.1l-4.6,1.7l-3.7-0.5l-2-1.3l-1,0.6
	l-3.9-0.2l-1.4-1.1l-4.4-1.7l-0.7,0.1l-3.6-1.2l-1.6,1.5l-5.1-0.3l-4.9-3.4l0.6-0.7l0.2-6.5l-1.9-3.2l-3.4-0.5l-0.6-2.1l-2-0.4
	l-4.8,1.7l-1.9,5.4l-2.7,8.3l-2.7,5.4l-4.2,11.7l-5.4,11.3l-6.7,10.5l-1.6,2.4l-0.7,7.1l0.3,10L198.8,4948.6L198.8,4948.6z"/>
<path id="WA_8_" class="st0" d="M160,4809.2l3.6,1.2l8.1,2.3l7.1,1.6l16.6,4.7l19.1,4.7l12.6,2.7l-11.3,52.8l-10.3-2.9l-12.9-3
	l-12.6,0l-0.4-1.1l-4.6,1.8l-3.8-0.6l-1.8-1.3l-1.1,0.5l-3.9-0.1l-1.4-1.1l-4.4-1.8l-0.6,0.1l-3.6-1.3l-1.6,1.5l-5.2-0.2l-4.9-3.4
	l0.6-0.8l0.1-6.4l-1.9-3.2l-3.4-0.5l-0.6-2.1l-1.9-0.4l-3,1l-1.9-2.7l0.3-2.4l2.3-0.3l1.3-3.4l-2.1-0.9l0.1-3.1l3.6-0.5l-2.3-2.3
	l-1.2-5.9l0.5-2.4v-6.6l-1.5-2.7l1.9-7.8l1.7,0.4l2,2.4l2.3,2.1l2.7,1.6l3.8,1.7l2.5,0.5l2.4,1.2l2.8,0.8l1.9-0.1v-2l1.1-0.9
	l1.7-1.1l0.3,0.9l0.3,1.5l-1.9,0.4l-0.3,1.7l1.5,1.2l0.9,2l0.5,1.6l1.2-0.1l0.1-1.1l-0.8-1.1l-0.4-2.7l0.7-1.5l-0.5-1.2v-1.9l1.5-3
	l-0.9-2.1l-2-4l0.3-0.7L160,4809.2L160,4809.2z M152.2,4814.2l1.7-0.1l0.4,1.1l1.3-1.3h1.9l0.7,1.3l-1.3,1.4l0.5,0.7l-0.6,1.7
	l-1.1,0.3c0,0-0.7,0.1-0.7-0.2s1.2-2.1,1.2-2.1l-1.4-0.5l-0.3,1.2l-0.6,0.5l-1.3-1.9C152.6,4816.3,152.2,4814.2,152.2,4814.2z"/>
<g id="ca_8_">
	<path id="CA_8_" class="st0" d="M195.4,5120.1l3.3-0.4l1.2-1.7l0.5-2.4l-2.9-0.5l-0.4-0.6l0.4-1.7l-0.1-0.5l1.6-0.5l2.5-2.4
		l0.5-4.1l1.1-2.8l1.6-1.8l2.9-1.3l1.4-1.3l0.1-1.8l-0.8-0.5l-0.8-0.9l-1-4.9l-2.2-4l0.5-2.9l-2-0.9l-57.3-86.5l15.7-56.1l-55.7-13
		l-1.3,3.9l-0.1,6.2l-4.3,9.8l-2.5,2.1l-0.3,0.9l-1.5,0.7l-1.2,3.5l-0.7,2.7l2.3,3.5l1.3,3.5l0.9,3l-0.3,5.4l-1.5,2.5l-0.5,4.8
		l-0.8,3.1l1.5,3.2l2.3,3.8l1.9,4l1.1,3.4l-0.3,2.7l-0.3,0.4v1.7l4.7,5.2l-0.4,2l-0.5,1.9l-0.5,1.6l0.1,6.8l1.7,3.1l1.6,2.1l2.3,0.4
		l0.8,2.3l-0.9,3l-1.7,1.3h-0.9l-0.7,3.2l0.4,2.4l2.7,3.6l1.3,4.4l1.2,3.9l1.1,2.5l2.8,4.8l1.2,2.1l0.4,2.4l1.3,0.8v2l-0.7,1.6
		l-1.5,5.9l-0.4,1.6l2,2.3l3.5,0.4l3.8,1.5l3.2,1.7h2.4l2.4,2.5l2.1,4l0.9,1.9l3.2,1.7l4,0.7l1.2,1.7l0.5,2.7l-1.2,0.5l0.3,0.8
		l2.7,0.7l2.3,0.1l2.6-1.4l3.2,3.5l0.7,1.9l2.1,3.5l0.3,2.7v7.8l0.4,1.5l8.3,1.2l16.4,2.3L195.4,5120.1L195.4,5120.1z M122.3,5083.9
		l1.1,1.3l-0.1,1.1l-2.7-0.1l-0.5-1l-0.5-1.2L122.3,5083.9L122.3,5083.9z M123.9,5083.9l1-0.5l3,1.7l2.5,1l-0.7,0.5l-3.8-0.2
		l-1.3-1.3L123.9,5083.9L123.9,5083.9z M141,5100.3l1.5,1.9l0.7,0.8l1.3,0.5l0.5-1.2l-0.8-1.5l-2.2-1.7l-0.9,0.1V5100.3z
		 M139.8,5107.5l1.5,2.6l1,1.6l-1.2,0.2l-1.1-1c0,0-0.6-1.2-0.6-1.5s0-1.8,0-1.8L139.8,5107.5L139.8,5107.5z"/>
</g>
</svg>
